<svg width="203" height="33" viewBox="0 0 203 33" fill="none" xmlns="http://www.w3.org/2000/svg">
<path d="M0.391492 13.1576C4.72871 27.2543 20.6376 18.4781 35.4045 12.3012C38.3684 40.0231 -4.5147 39.4899 0.391492 13.1576Z" fill="white"/>
<path d="M19.1055 8.61343C28.1651 -0.749702 28.6648 -2.90852 34.2107 7.17482C27.7902 3.5564 26.1396 6.18786 19.1055 8.61343Z" fill="white"/>
<path d="M5.76984 11.1491C8.84857 11.1491 11.3444 8.65325 11.3444 5.57452C11.3444 2.49579 8.84857 0 5.76984 0C2.69111 0 0.195312 2.49579 0.195312 5.57452C0.195312 8.65325 2.69111 11.1491 5.76984 11.1491Z" fill="white"/>
<path d="M69.56 25H65.456L58.592 14.608V25H54.488V8.152H58.592L65.456 18.592V8.152H69.56V25ZM85.1589 18.088C85.1589 18.472 85.1349 18.872 85.0869 19.288H75.7989C75.8629 20.12 76.1269 20.76 76.5909 21.208C77.0709 21.64 77.6549 21.856 78.3429 21.856C79.3669 21.856 80.0789 21.424 80.4789 20.56H84.8469C84.6229 21.44 84.2149 22.232 83.6229 22.936C83.0469 23.64 82.3189 24.192 81.4389 24.592C80.5589 24.992 79.5749 25.192 78.4869 25.192C77.1749 25.192 76.0069 24.912 74.9829 24.352C73.9589 23.792 73.1589 22.992 72.5829 21.952C72.0069 20.912 71.7189 19.696 71.7189 18.304C71.7189 16.912 71.9989 15.696 72.5589 14.656C73.1349 13.616 73.9349 12.816 74.9589 12.256C75.9829 11.696 77.1589 11.416 78.4869 11.416C79.7829 11.416 80.9349 11.688 81.9429 12.232C82.9509 12.776 83.7349 13.552 84.2949 14.56C84.8709 15.568 85.1589 16.744 85.1589 18.088ZM80.9589 17.008C80.9589 16.304 80.7189 15.744 80.2389 15.328C79.7589 14.912 79.1589 14.704 78.4389 14.704C77.7509 14.704 77.1669 14.904 76.6869 15.304C76.2229 15.704 75.9349 16.272 75.8229 17.008H80.9589ZM106.548 11.608L102.924 25H98.3879L96.2759 16.312L94.0919 25H89.5799L85.9319 11.608H90.0359L91.9319 21.184L94.1879 11.608H98.5319L100.812 21.136L102.684 11.608H106.548ZM116.345 11.464C117.881 11.464 119.113 11.976 120.041 13C120.969 14.008 121.433 15.4 121.433 17.176V25H117.353V17.728C117.353 16.832 117.121 16.136 116.657 15.64C116.193 15.144 115.569 14.896 114.785 14.896C114.001 14.896 113.377 15.144 112.913 15.64C112.449 16.136 112.217 16.832 112.217 17.728V25H108.113V7.24H112.217V13.408C112.633 12.816 113.201 12.344 113.921 11.992C114.641 11.64 115.449 11.464 116.345 11.464ZM123.469 18.28C123.469 16.904 123.725 15.696 124.237 14.656C124.765 13.616 125.477 12.816 126.373 12.256C127.269 11.696 128.269 11.416 129.373 11.416C130.317 11.416 131.141 11.608 131.845 11.992C132.565 12.376 133.117 12.88 133.501 13.504V11.608H137.605V25H133.501V23.104C133.101 23.728 132.541 24.232 131.821 24.616C131.117 25 130.293 25.192 129.349 25.192C128.261 25.192 127.269 24.912 126.373 24.352C125.477 23.776 124.765 22.968 124.237 21.928C123.725 20.872 123.469 19.656 123.469 18.28ZM133.501 18.304C133.501 17.28 133.213 16.472 132.637 15.88C132.077 15.288 131.389 14.992 130.573 14.992C129.757 14.992 129.061 15.288 128.485 15.88C127.925 16.456 127.645 17.256 127.645 18.28C127.645 19.304 127.925 20.12 128.485 20.728C129.061 21.32 129.757 21.616 130.573 21.616C131.389 21.616 132.077 21.32 132.637 20.728C133.213 20.136 133.501 19.328 133.501 18.304ZM144.678 13.504C145.078 12.88 145.63 12.376 146.334 11.992C147.038 11.608 147.862 11.416 148.806 11.416C149.91 11.416 150.91 11.696 151.806 12.256C152.702 12.816 153.406 13.616 153.918 14.656C154.446 15.696 154.71 16.904 154.71 18.28C154.71 19.656 154.446 20.872 153.918 21.928C153.406 22.968 152.702 23.776 151.806 24.352C150.91 24.912 149.91 25.192 148.806 25.192C147.878 25.192 147.054 25 146.334 24.616C145.63 24.232 145.078 23.736 144.678 23.128V31.384H140.574V11.608H144.678V13.504ZM150.534 18.28C150.534 17.256 150.246 16.456 149.67 15.88C149.11 15.288 148.414 14.992 147.582 14.992C146.766 14.992 146.07 15.288 145.494 15.88C144.934 16.472 144.654 17.28 144.654 18.304C144.654 19.328 144.934 20.136 145.494 20.728C146.07 21.32 146.766 21.616 147.582 21.616C148.398 21.616 149.094 21.32 149.67 20.728C150.246 20.12 150.534 19.304 150.534 18.28ZM160.967 13.504C161.367 12.88 161.919 12.376 162.623 11.992C163.327 11.608 164.151 11.416 165.095 11.416C166.199 11.416 167.199 11.696 168.095 12.256C168.991 12.816 169.695 13.616 170.207 14.656C170.735 15.696 170.999 16.904 170.999 18.28C170.999 19.656 170.735 20.872 170.207 21.928C169.695 22.968 168.991 23.776 168.095 24.352C167.199 24.912 166.199 25.192 165.095 25.192C164.167 25.192 163.343 25 162.623 24.616C161.919 24.232 161.367 23.736 160.967 23.128V31.384H156.863V11.608H160.967V13.504ZM166.823 18.28C166.823 17.256 166.535 16.456 165.959 15.88C165.399 15.288 164.703 14.992 163.871 14.992C163.055 14.992 162.359 15.288 161.783 15.88C161.223 16.472 160.943 17.28 160.943 18.304C160.943 19.328 161.223 20.136 161.783 20.728C162.359 21.32 163.055 21.616 163.871 21.616C164.687 21.616 165.383 21.32 165.959 20.728C166.535 20.12 166.823 19.304 166.823 18.28ZM185.776 18.088C185.776 18.472 185.752 18.872 185.704 19.288H176.416C176.48 20.12 176.744 20.76 177.208 21.208C177.688 21.64 178.272 21.856 178.96 21.856C179.984 21.856 180.696 21.424 181.096 20.56H185.464C185.24 21.44 184.832 22.232 184.24 22.936C183.664 23.64 182.936 24.192 182.056 24.592C181.176 24.992 180.192 25.192 179.104 25.192C177.792 25.192 176.624 24.912 175.6 24.352C174.576 23.792 173.776 22.992 173.2 21.952C172.624 20.912 172.336 19.696 172.336 18.304C172.336 16.912 172.616 15.696 173.176 14.656C173.752 13.616 174.552 12.816 175.576 12.256C176.6 11.696 177.776 11.416 179.104 11.416C180.4 11.416 181.552 11.688 182.56 12.232C183.568 12.776 184.352 13.552 184.912 14.56C185.488 15.568 185.776 16.744 185.776 18.088ZM181.576 17.008C181.576 16.304 181.336 15.744 180.856 15.328C180.376 14.912 179.776 14.704 179.056 14.704C178.368 14.704 177.784 14.904 177.304 15.304C176.84 15.704 176.552 16.272 176.44 17.008H181.576ZM196.101 11.464C197.669 11.464 198.917 11.976 199.845 13C200.789 14.008 201.261 15.4 201.261 17.176V25H197.181V17.728C197.181 16.832 196.949 16.136 196.485 15.64C196.021 15.144 195.397 14.896 194.613 14.896C193.829 14.896 193.205 15.144 192.741 15.64C192.277 16.136 192.045 16.832 192.045 17.728V25H187.941V11.608H192.045V13.384C192.461 12.792 193.021 12.328 193.725 11.992C194.429 11.64 195.221 11.464 196.101 11.464Z" fill="white"/>
</svg>
